<?xml version="1.0" standalone="no"?>
<!DOCTYPE svg PUBLIC "-//W3C//DTD SVG 20010904//EN"
 "http://www.w3.org/TR/2001/REC-SVG-20010904/DTD/svg10.dtd">
<svg version="1.0" xmlns="http://www.w3.org/2000/svg"
 width="3062.000000pt" height="3062.000000pt" viewBox="0 0 3062.000000 3062.000000"
 preserveAspectRatio="xMidYMid meet">
<metadata>
Created by potrace 1.14, written by Peter Selinger 2001-2017
</metadata>
<g transform="translate(0.000000,3062.000000) scale(0.100000,-0.100000)"
fill="#000000" stroke="none">
<path d="M16001 22138 c-55 -55 -101 -109 -103 -121 -2 -12 0 -35 5 -50 12
-35 7 -39 -70 -67 -34 -12 -69 -30 -77 -39 -13 -14 -79 -186 -120 -311 -10
-32 -93 -181 -169 -305 -56 -90 -140 -220 -146 -225 -4 -3 -70 -85 -148 -182
-144 -179 -166 -214 -198 -303 -9 -27 -21 -59 -26 -70 -4 -11 -33 -92 -64
-180 -119 -338 -150 -396 -296 -553 -27 -29 -49 -56 -50 -60 -1 -4 -2 -35 -3
-69 -2 -34 -8 -68 -14 -75 -6 -7 -39 -28 -74 -46 -159 -84 -154 -78 -190 -207
-19 -68 -29 -87 -69 -126 -38 -39 -60 -51 -131 -73 -87 -26 -99 -35 -188 -132
-25 -27 -74 -81 -110 -119 -36 -39 -91 -99 -122 -133 -32 -34 -61 -62 -66 -62
-5 0 -21 28 -37 63 -73 160 -64 147 -93 136 -15 -6 -101 -37 -192 -70 -91 -33
-175 -64 -188 -69 -30 -13 -52 -13 -52 0 0 8 -118 270 -126 279 -1 1 -21 -12
-43 -29 -37 -30 -42 -32 -70 -20 -17 7 -36 18 -42 26 -17 21 -24 18 -53 -27
-34 -51 -73 -69 -129 -58 -23 5 -77 15 -119 23 -73 14 -190 64 -239 103 -69
55 -214 220 -270 306 -21 32 -71 138 -113 235 -98 232 -173 382 -206 412 -10
9 -127 175 -138 195 -11 23 -18 60 -27 160 -4 38 -8 76 -10 85 -2 9 -6 54 -10
101 -6 77 -12 95 -71 216 l-65 132 -38 -19 c-39 -21 -64 -24 -122 -14 -29 5
-41 1 -61 -18 -93 -85 -158 -137 -202 -161 -28 -16 -75 -42 -103 -58 -29 -16
-60 -29 -70 -29 -9 0 -75 19 -146 42 l-128 43 -10 41 c-20 77 -67 108 -241
159 -87 25 -126 24 -176 -5 -77 -46 -230 -160 -246 -185 -13 -19 -17 -49 -18
-118 -1 -116 -19 -164 -74 -192 -235 -122 -326 -184 -574 -389 -181 -151 -288
-257 -456 -454 -16 -19 -55 -61 -87 -95 -95 -103 -123 -151 -183 -322 -31 -88
-65 -185 -76 -215 -27 -75 -29 -85 -32 -234 -2 -111 -5 -137 -23 -172 -23 -43
-110 -129 -143 -139 -11 -3 -23 -18 -26 -33 -18 -81 -29 -103 -80 -172 -69
-92 -299 -439 -381 -575 -259 -428 -488 -896 -666 -1360 -48 -124 -147 -403
-147 -414 0 -5 -7 -8 -16 -7 -20 1 -39 -47 -48 -124 -4 -30 -11 -57 -16 -60
-5 -3 -14 -19 -20 -35 -16 -41 -82 -283 -118 -436 -27 -113 -34 -141 -46 -204
-45 -222 -60 -299 -76 -400 -37 -239 -44 -289 -55 -400 -4 -38 -9 -77 -10 -85
-4 -20 -14 -129 -20 -205 -28 -373 -28 -962 0 -1297 l6 -68 -335 0 c-185 0
-338 0 -341 -1 -182 -32 -323 -101 -440 -215 -105 -102 -174 -220 -210 -359
l-24 -90 0 -1100 c-1 -1170 -2 -1146 46 -1275 87 -234 295 -419 540 -479 77
-19 237 -20 9253 -20 8928 0 9177 1 9251 19 291 72 513 302 574 595 22 108 22
2203 0 2309 -66 310 -291 535 -601 601 -52 11 -149 15 -397 15 l-328 0 6 77
c12 131 29 524 29 678 1 90 -13 481 -19 520 -2 17 -6 66 -10 110 -3 44 -8 105
-11 135 -6 61 -42 351 -49 390 -3 14 -7 45 -11 70 -26 207 -138 729 -207 970
-107 371 -205 656 -332 965 -132 320 -271 608 -316 658 -16 17 -29 34 -29 38
0 4 -29 58 -65 120 -36 63 -65 119 -65 126 0 6 -6 18 -14 25 -39 40 -78 139
-136 353 -34 127 -83 302 -107 390 -25 88 -50 178 -55 200 -5 22 -11 47 -13
55 -2 8 -23 80 -45 160 -42 148 -139 497 -196 708 -8 31 -18 102 -21 157 -5
97 -7 103 -57 200 -128 245 -128 245 -214 285 -60 27 -57 23 -140 230 -28 69
-84 211 -126 316 -60 150 -82 193 -100 202 -40 18 -94 71 -100 100 -4 15 -20
68 -35 117 -16 50 -39 126 -52 169 -19 67 -31 88 -77 138 -45 48 -58 70 -72
126 -10 37 -30 102 -44 145 -14 43 -26 83 -26 90 0 13 -60 77 -72 77 -4 0 -68
30 -143 66 l-136 66 -122 146 c-67 81 -132 159 -145 173 -12 14 -28 34 -36 44
-12 16 -29 7 -221 -126 -192 -133 -216 -153 -310 -259 -56 -63 -109 -126 -118
-140 -13 -21 -15 -56 -15 -201 0 -135 -3 -184 -14 -205 -8 -16 -42 -79 -76
-140 -61 -107 -87 -188 -157 -474 -40 -161 -43 -167 -144 -257 -52 -46 -114
-96 -138 -110 l-43 -25 -103 40 c-107 42 -208 80 -499 185 -97 35 -183 71
-190 78 -7 8 -55 61 -107 119 -52 58 -132 146 -178 197 -109 119 -77 77 -509
670 -53 73 -129 163 -168 200 -39 37 -138 131 -219 208 -96 91 -179 181 -235
255 -173 227 -142 206 -299 207 l-133 2 -99 -101z"/>
</g>
</svg>
