<svg width="854" height="150" viewBox="0 0 854 150" fill="none" xmlns="http://www.w3.org/2000/svg">
    <path d="M448.905 2.42769C448.504 3.77641 448.304 5.34991 448.504 5.93436C448.905 6.92342 448.504 7.73265 444.701 13.5771C443.633 15.1956 441.164 16.7241 438.428 17.4434C438.094 17.5333 438.361 17.893 439.028 18.2527C440.23 18.8821 440.163 18.972 437.36 19.6463L434.424 20.3207L438.561 20.3656C440.83 20.4106 443.499 20.1858 444.5 19.961C445.501 19.6913 446.436 19.6014 446.636 19.7363C447.236 20.1409 443.9 22.2539 441.297 23.153C439.562 23.7375 438.761 24.3219 438.761 24.9513C438.761 25.8055 439.028 25.8504 442.432 25.6256C445.635 25.4458 446.102 25.4908 446.102 26.2101C446.102 28.3231 439.162 30.0315 431.421 29.7617C425.882 29.6268 425.215 29.8966 429.219 30.7957L431.621 31.3352L430.02 32.1445C428.885 32.7289 427.284 32.9986 424.614 32.9986C421.878 32.9986 420.744 33.1785 420.744 33.5831C420.744 34.6621 423.213 36.0108 426.349 36.5952C429.953 37.2696 429.686 37.944 425.482 38.7532C422.479 39.3826 421.545 40.4166 423.413 41.091C425.482 41.8103 434.424 41.6754 435.425 40.8662C436.559 39.967 438.094 40.012 438.161 40.9561C438.361 42.6645 437.961 43.159 435.024 45.0022C430.687 47.6997 425.882 48.8236 417.474 49.0934C411.201 49.2732 410.667 49.3631 412.136 49.9026C413.003 50.2173 415.072 50.6219 416.74 50.8017L419.743 51.1164L417.074 51.9257C413.871 52.8698 413.871 52.8698 422.746 53.0946C433.089 53.3643 439.429 53.2294 440.897 52.7349C442.098 52.2853 442.165 52.3303 441.164 53.5891C437.16 58.8041 428.285 61.3217 413.937 61.3217C406.397 61.3217 405.262 61.6814 407.931 63.2099C410.067 64.4687 411.935 64.9183 416.673 65.1881C419.276 65.3679 421.411 65.6826 421.411 65.9074C421.411 66.4019 418.408 67.1662 416.406 67.1662C414.071 67.1662 413.804 67.9305 415.739 68.7847C417.341 69.459 417.874 69.459 424.281 68.7847C428.018 68.3351 431.421 68.0204 431.755 68.0204C434.09 68.1552 437.427 68.6498 437.427 68.9195C437.427 69.459 431.354 73.4602 429.552 74.0896C428.552 74.4493 425.882 74.9888 423.613 75.2585C420.61 75.6631 419.009 76.1576 417.674 77.1018L415.872 78.3606L417.674 78.6753C420.677 79.1698 427.617 78.5853 431.021 77.5963L434.157 76.6522L432.689 78.2257L431.221 79.8441L434.09 78.8551C435.692 78.3156 438.428 76.9669 440.23 75.798C442.699 74.2694 443.633 73.8648 444.233 74.2694C444.701 74.5841 445.568 74.8089 446.235 74.8089C446.903 74.8089 447.437 74.8988 447.437 75.0337C447.437 75.753 443.9 78.9 442.165 79.7542C441.03 80.2488 438.561 81.6424 436.626 82.7664C434.691 83.8903 430.954 85.5088 428.285 86.3629C424.08 87.7117 422.612 87.9814 416.873 88.1612L410.334 88.431L408.132 86.5428L405.929 84.6995H407.998C410.801 84.6995 415.405 83.7105 415.405 83.0811C415.405 82.3618 413.937 81.3727 410.934 80.0689C408.665 79.1248 407.865 78.3606 406.664 76.1576C405.863 74.6741 404.795 73.2354 404.328 72.9657C403.661 72.606 403.394 71.3023 403.394 68.5599C403.327 62.8053 401.592 58.1747 399.39 58.1747C397.521 58.1747 396.921 59.0739 396.12 63.0301C395.719 65.0532 394.985 67.3011 394.452 67.9754C392.783 70.1334 388.179 73.0106 386.444 73.0106C382.507 73.0106 381.639 74.2245 384.175 76.0228L385.576 77.0568H382.306C379.17 77.1017 379.103 77.1018 380.705 77.7312C381.639 78.0908 383.641 78.3606 385.243 78.4055C387.712 78.4055 388.045 78.5404 388.045 79.4845C388.045 80.0689 388.512 80.7882 389.046 81.1029C390.581 81.9571 390.314 82.2269 386.577 83.5756L383.107 84.8794L384.575 83.5756C385.776 82.5416 385.91 82.1819 385.243 81.7324C384.575 81.2828 383.775 81.2828 381.572 81.6874C374.966 82.8563 364.489 80.3836 358.283 76.1127C355.48 74.1795 355.28 73.9098 356.548 73.9098C358.149 73.9098 358.416 73.4602 357.282 72.6959C356.815 72.3812 358.283 72.1564 362.22 72.0216C368.96 71.7069 371.696 70.9876 371.696 69.4141C371.696 68.5599 371.229 68.2452 369.294 67.8405C368.026 67.6158 366.157 67.0313 365.156 66.5817C364.155 66.1322 362.354 65.6826 361.152 65.5028C358.083 65.0982 346.004 59.2088 346.004 58.0848C346.004 57.905 347.339 57.7252 348.94 57.7252C350.809 57.7252 352.411 57.4105 353.345 56.9159C355.08 55.9718 354.613 54.8479 352.677 55.2525C351.343 55.5222 348.674 54.8029 348.674 54.1735C348.674 53.9937 350.208 53.8588 352.077 53.8588C355.013 53.9038 355.68 53.724 357.082 52.645C359.284 50.8917 359.084 50.532 355.814 50.532C352.811 50.532 350.008 49.5429 350.008 48.5089C350.008 48.1493 349.141 47.2052 348.073 46.3959C346.605 45.272 346.338 44.7325 346.872 44.193C347.406 43.6086 347.873 43.5636 349.408 43.9233C350.809 44.2829 351.476 44.2829 352.277 43.7884C353.678 43.0691 353.145 41.7204 350.809 40.0569C348.874 38.6633 346.204 34.4373 345.204 30.9756C343.202 24.5017 341.533 21.9392 339.932 22.9732C339.465 23.2879 338.864 24.5017 338.597 25.6706C337.529 30.6609 336.462 32.9087 333.592 36.4604C330.523 40.2368 329.121 41.2258 325.851 41.7653C323.449 42.1699 321.847 43.4737 322.114 44.7775C322.248 45.6316 322.715 45.8115 324.784 45.8115C326.118 45.8115 327.386 45.9463 327.653 46.0812C328.32 46.5757 324.717 48.2392 321.714 48.8236C317.577 49.6328 311.971 51.8807 311.17 53.0496C310.37 54.2185 309.235 54.3983 307.233 53.679C306.232 53.2744 305.965 53.3643 305.965 53.9487C305.965 54.4433 305.632 54.5781 304.831 54.3983C303.763 54.1286 303.696 54.1286 304.697 54.8029C305.231 55.1626 307.5 55.7021 309.702 55.9718C311.838 56.1966 314.707 56.5563 315.975 56.7361L318.244 57.0958L316.108 58.1298C314.907 58.7142 312.038 59.4335 309.769 59.7932C305.231 60.5125 299.359 62.9402 299.292 64.0641C299.292 64.5137 300.026 64.9183 301.161 65.0532C302.162 65.1881 304.163 65.5028 305.632 65.7725C307.1 66.0423 309.235 66.1322 310.303 65.9973C311.971 65.8175 312.505 65.9973 313.439 67.1212C314.44 68.38 314.44 68.5149 313.372 69.1443C312.705 69.5489 311.704 69.8636 311.104 69.8636C310.57 69.8636 309.569 70.1783 308.968 70.5829C308.101 71.1674 308.101 71.4371 308.768 71.9766C309.369 72.4711 310.636 72.606 314.107 72.4712C316.576 72.3812 318.644 72.4262 318.644 72.606C318.644 73.4153 310.103 78.0009 306.232 79.3047C301.294 80.9231 299.559 80.8782 300.693 79.1248C301.227 78.3606 302.162 77.9559 303.897 77.7761C306.699 77.4614 309.302 76.3824 309.302 75.4383C309.302 75.0787 308.634 74.8089 307.834 74.8089C303.429 74.764 295.955 70.6729 292.085 66.267C291.151 65.1431 290.083 64.154 289.816 64.1091C288.548 63.7494 289.482 63.165 291.885 62.8952C297.824 62.2209 298.024 60.4676 292.419 59.1638C289.282 58.3995 286.746 56.4214 287.681 55.3874C287.881 55.1626 287.547 54.5781 286.947 54.1286C285.946 53.4093 285.946 53.1395 286.613 52.5551C287.28 52.0156 287.347 50.6669 287.013 47.0253C286.48 41.4057 286.079 40.1019 285.011 40.3267C284.611 40.4166 283.944 41.4956 283.543 42.7094C283.143 43.9233 282.142 45.9014 281.341 47.1602C280.474 48.464 279.806 50.487 279.673 52.0605C279.539 55.1176 278.472 55.9269 274.468 55.9269C272.266 55.9269 271.932 56.0617 271.932 56.9609C271.932 57.7252 272.599 58.2646 274.201 58.8491C276.937 59.8382 276.737 60.2428 272.933 61.3667C270.531 62.086 269.396 62.1759 265.859 61.8163C263.524 61.5915 261.455 61.5016 261.322 61.5915C261.255 61.6364 262.323 62.2658 263.857 62.9852C265.326 63.6595 266.527 64.3788 266.593 64.5137C266.593 64.6935 265.326 64.9633 263.791 65.0982L260.921 65.4129L263.19 66.0872C264.391 66.4469 267.394 66.7166 269.863 66.7166L274.268 66.7616L272.599 67.6607C268.195 70.1334 256.784 72.9657 254.248 72.2014C253.447 71.9317 251.045 71.617 248.91 71.4371C245.239 71.1224 245.106 71.1224 245.84 72.0216C246.774 73.2354 250.177 75.1236 253.514 76.2476C255.383 76.877 257.852 77.2366 261.188 77.3265C263.857 77.4164 266.46 77.6862 266.86 77.911C267.261 78.1358 268.195 78.4055 268.929 78.4954C269.997 78.6303 269.463 79.0799 266.06 80.7882C262.323 82.6315 255.516 84.6096 254.782 84.0701C254.582 83.9802 254.982 83.3508 255.649 82.7214C256.25 82.0471 256.584 81.4176 256.384 81.2378C256.183 81.1029 253.914 81.5525 251.445 82.2718C247.642 83.3508 245.973 83.5306 241.235 83.5306C236.364 83.5306 234.429 83.2609 227.222 81.6424C222.617 80.6084 218.146 79.3047 217.212 78.8101C215.877 78.0459 215.811 77.911 216.878 78.1807C219.548 78.8101 227.088 78.945 232.36 78.4954C240.902 77.6862 244.172 76.1576 237.231 76.1576C234.629 76.1576 233.761 75.9778 233.228 75.3035C232.894 74.8089 230.692 73.8199 228.49 73.1006L224.419 71.7968L229.09 72.0216C231.693 72.1115 234.562 72.1115 235.563 71.9317L237.298 71.617L234.229 69.6388C231.092 67.5258 230.825 66.7166 233.495 66.7166C234.963 66.7166 241.969 64.1091 243.838 62.8952C244.639 62.3558 244.505 62.2209 242.837 61.9961C231.626 60.2877 218.48 56.6911 215.277 54.3983L213.809 53.3643L218.68 53.1395C223.885 52.9147 229.09 51.6559 231.693 49.9925C232.76 49.3181 233.228 48.5089 233.228 47.34C233.228 45.6316 233.161 45.6316 231.092 45.8564C229.891 45.9913 228.49 46.1711 228.023 46.306C226.955 46.5308 216.545 45.272 214.076 44.6426L212.207 44.1481L214.209 43.6535C216.945 43.0241 218.013 42.3947 217.679 41.5405C217.479 40.9111 218.28 40.8212 224.486 40.8662C231.159 40.8662 231.759 40.7763 234.896 39.5175L238.232 38.1687L233.895 38.0788C228.89 37.9439 222.017 37.0898 221.483 36.5503C221.283 36.3255 221.816 36.1457 222.684 36.1457C224.619 36.1457 229.891 34.5272 229.891 33.9877C229.891 33.7629 226.354 33.3133 222.083 32.9986C211.34 32.2344 207.336 31.3352 211.139 30.526C213.075 30.1214 215.877 28.5029 215.877 27.7836C215.877 27.4689 214.009 26.5698 211.74 25.8954C209.404 25.1761 207.135 24.2769 206.602 23.8723C205.534 22.9732 205.801 22.9282 208.27 23.6026C209.338 23.8274 210.872 23.9173 211.74 23.7824C213.275 23.5127 213.141 23.4227 209.805 20.9501C204.533 17.0388 203.198 15.4653 202.865 12.7229C202.398 8.67675 201.597 6.74359 200.329 6.56376C199.528 6.42889 199.194 6.69863 199.194 7.50786C199.194 8.13727 198.594 9.5759 197.86 10.7448C197.126 11.9137 196.525 13.3523 196.525 13.9368C196.525 15.1956 194.924 17.4884 191.587 20.9951C188.517 24.232 185.715 28.0533 186.382 28.0533C186.716 28.0533 188.25 27.4239 189.718 26.7046C191.253 25.9404 192.521 25.4458 192.521 25.5357C192.521 25.6257 191.787 26.8395 190.853 28.2781C188.717 31.5151 184.914 34.6171 181.711 35.741C178.975 36.6851 178.374 38.0339 180.309 38.7981C181.844 39.3376 181.978 39.2477 174.637 41.7204C171.034 42.9342 168.498 44.0581 168.698 44.3728C169.499 45.9913 176.773 46.5757 181.844 45.3619L184.647 44.6875L183.379 46.1262C181.844 47.9245 173.503 51.0265 164.694 53.0496C161.291 53.8139 158.755 54.5781 158.955 54.758C160.423 55.747 176.305 54.3983 182.712 52.7799C184.58 52.2853 186.248 51.8807 186.382 51.8807C187.249 51.8807 183.512 55.1176 180.443 57.0058C176.305 59.6134 169.966 61.5016 162.892 62.2658C158.021 62.8053 157.821 62.8952 157.821 64.2889C157.821 66.4918 161.758 67.9754 169.699 68.7847C171.234 68.9195 172.502 69.2342 172.502 69.4141C172.502 69.6388 170.7 70.2682 168.431 70.8077C166.229 71.3472 164.227 72.0665 164.027 72.4262C163.026 74.1346 165.762 76.1576 169.098 76.1576C171.768 76.1576 171.901 77.2366 169.432 79.6643C168.164 80.9681 166.829 82.0021 166.429 82.0021C166.095 82.0021 164.694 81.6424 163.293 81.1479C161.958 80.6983 159.956 80.2038 158.822 80.024C154.884 79.3946 152.148 77.5064 155.151 77.5064C155.952 77.5064 157.487 77.1917 158.555 76.787C161.424 75.798 160.824 74.764 156.753 73.7749C154.684 73.2804 151.882 72.0216 149.746 70.6729L146.143 68.4699L148.745 67.8405C151.281 67.2561 152.616 66.4019 152.282 65.6376C152.148 65.4578 150.614 64.8734 148.812 64.4238C147.01 63.9742 145.075 63.2999 144.541 62.8952C143.607 62.3108 143.74 62.2209 145.876 62.2209C148.411 62.2209 151.147 61.1869 151.147 60.1978C151.147 59.8831 149.613 59.2537 147.811 58.8491C144.675 58.1298 140.47 56.2416 140.47 55.5223C140.47 55.3874 141.672 55.2525 143.073 55.2525C144.541 55.2525 145.942 55.1176 146.143 54.9378C146.41 54.758 145.409 53.9038 143.874 53.0046C141.405 51.4761 140.537 50.3522 138.602 46.0363C138.202 45.1821 137.668 42.3498 137.401 39.7422C136.934 35.1116 136.867 35.0667 136.066 36.82C135.599 37.8091 135.199 39.7872 135.199 41.1809C135.065 45.8564 133.197 49.9026 130.661 50.6669C128.726 51.2513 128.726 51.611 130.661 52.1954C132.129 52.645 132.062 52.6899 129.793 53.634C128.525 54.1286 126.39 54.713 125.122 54.8479C123.854 55.0277 122.453 55.3424 121.986 55.5672C121.519 55.792 120.851 55.8819 120.451 55.7021C120.117 55.5672 119.784 55.6571 119.784 55.8819C119.784 56.5113 124.121 57.7252 126.19 57.7252C127.057 57.7252 127.791 57.905 127.791 58.0848C127.791 58.8041 126.19 59.5235 124.655 59.5235C122.786 59.5235 121.852 60.7823 123.187 61.3667C123.721 61.5915 124.922 61.7264 125.99 61.6364C126.991 61.5465 127.791 61.5915 127.791 61.7713C127.791 62.4457 123.787 63.4797 120.184 63.7045C118.049 63.8394 116.18 64.0641 115.98 64.199C115.313 64.6486 116.647 65.4129 119.183 66.1322C121.986 66.8515 122.653 67.6158 120.518 67.6158C119.784 67.6158 119.05 67.7956 118.783 68.0204C118.249 68.6498 120.985 69.5489 122.853 69.2792C123.721 69.1893 124.255 69.2792 124.054 69.459C123.187 70.4031 117.648 72.0665 112.91 72.7858C110.107 73.1905 107.572 73.7749 107.371 73.9997C106.704 74.764 108.439 75.6182 111.842 76.1576C114.645 76.6072 115.112 76.832 114.779 77.5963C114.512 78.0459 114.712 78.7202 115.112 79.0799C115.78 79.6194 115.78 79.8891 115.046 80.4735C113.778 81.5076 108.105 83.3508 106.237 83.3508C104.369 83.3508 102.567 84.5197 103.501 85.1491C104.635 85.9134 110.775 87.9814 112.777 88.2961C114.712 88.6108 114.712 88.6108 110.308 90.0944L105.837 91.623L102.033 89.5999C99.8975 88.5209 96.8278 86.318 95.1595 84.7445C93.4912 83.126 91.2223 81.1479 90.1546 80.3387C89.0869 79.4845 88.3529 78.7202 88.4863 78.6303C88.6865 78.5404 89.9544 78.6303 91.4225 78.8551C94.4255 79.3496 104.635 79.3496 106.971 78.945C109.307 78.4954 108.84 77.7761 105.97 77.3715C101.566 76.6971 101.633 76.7421 102.834 75.4833C103.901 74.3594 103.901 74.3594 101.699 74.3594C97.7621 74.3144 94.292 72.8758 88.7533 68.8746C80.612 63.0301 75.2735 56.6462 82.0134 60.7823C86.6179 63.5696 93.7582 66.5368 98.1625 67.4359C101.633 68.1103 109.574 68.2901 110.975 67.6607C111.642 67.391 110.641 66.8964 107.572 65.9074C105.169 65.1431 102.1 64.0641 100.765 63.4347L98.3627 62.3108L100.632 61.3667C103.434 60.1978 105.103 58.6243 105.103 57.0508C105.103 56.1067 104.769 55.9269 103.167 55.9269C99.3636 55.9269 92.557 54.1286 88.4863 52.0605L84.4157 49.9925L86.4177 48.7337C88.6198 47.34 89.8877 45.4968 89.3539 44.5077C89.1537 44.1481 87.6188 43.7434 85.8171 43.5636C84.082 43.4287 81.2793 42.6645 79.4108 41.8552C76.3412 40.5515 76.2077 40.4166 77.7425 40.2817C83.7484 39.7872 84.8161 37.899 80.2783 35.831C77.0752 34.3923 76.4079 33.0886 78.0095 31.56C79.611 29.9865 79.2774 28.458 76.6748 25.5357C74.4059 23.0631 73.9388 21.8492 72.0036 14.7909L71.5365 12.9926L71.0026 14.7909C70.7357 15.78 70.2018 17.3985 69.8015 18.3875C69.4678 19.3766 68.9339 20.9051 68.7337 21.8043C68.4001 23.198 66.932 24.9063 63.7289 27.4689C63.3952 27.7386 62.5944 28.1882 61.9938 28.413C60.459 28.9975 61.2598 31.0205 63.1283 31.4251C64.3962 31.6949 64.4629 31.7848 63.3285 32.594C62.7279 33.0436 60.5925 34.0327 58.6572 34.7969C55.9212 35.831 55.0537 36.4154 55.0537 37.2246C55.0537 38.0788 55.6543 38.4385 58.1234 39.0679C60.7259 39.7422 61.46 39.7422 62.7946 39.2927C65.3971 38.3036 65.3972 39.1128 62.7279 40.7313C60.1921 42.2599 57.0557 43.2489 54.7201 43.3388C53.986 43.3388 52.1843 44.0581 50.7162 44.8674C48.3138 46.2611 48.1803 46.4409 49.3815 46.7106C51.4502 47.2052 57.9232 48.7787 59.3913 49.2282C60.5925 49.5429 60.5257 49.5879 58.9909 49.5879C57.8565 49.6328 56.7887 50.0375 56.1214 50.7568C55.4541 51.4761 54.3864 51.8807 53.3187 51.8807C52.4512 51.8807 50.3825 52.3303 48.8477 52.8248C46.4453 53.679 45.3776 53.7689 40.3727 53.5441C33.6996 53.2294 26.3591 51.9257 23.6231 50.5769C22.5553 50.0375 21.6878 49.7228 21.6878 49.8576C21.6878 50.7118 27.5602 55.5672 28.8281 55.747C29.6956 55.9269 32.3649 57.0058 34.7673 58.2197L39.1048 60.3776L36.2354 60.8722C34.7005 61.1869 32.098 61.3217 30.5632 61.1869C28.9616 61.097 27.6937 61.052 27.6937 61.1869C27.6937 61.5465 36.1019 63.9293 38.5042 64.244C39.8389 64.4238 43.042 64.3339 45.6445 64.0192C52.8516 63.2099 53.4522 63.8393 47.9134 66.5817C45.4443 67.7956 42.041 69.3691 40.3727 69.9985C36.0352 71.6619 27.4268 73.9098 25.2913 73.9098C23.5563 73.9098 23.4896 73.9547 24.6908 74.8089C26.8929 76.4274 31.5641 77.2816 38.2373 77.2366C44.9772 77.1917 45.5111 77.4614 41.8408 79.1248C39.2383 80.2937 39.8389 80.5185 46.4453 80.9231C50.8496 81.2378 50.9831 81.2828 49.5817 81.9122C48.7142 82.3168 46.8457 83.3508 45.3109 84.25C43.8428 85.1941 40.8399 86.363 38.6377 86.8575C36.5023 87.397 33.4994 88.2512 32.0313 88.7906C23.4229 91.9826 23.0225 92.0725 15.7487 92.2074C11.8783 92.2524 8.47494 92.5221 8.14128 92.7469C7.3405 93.2864 8.34147 94.4553 11.6781 96.6132L14.4141 98.4115H22.0882C26.2256 98.4115 29.6956 98.5014 29.6956 98.6363C29.6289 98.7712 27.2266 99.8501 24.2904 101.019C18.4847 103.357 17.8841 104.211 21.2207 105.29C22.8223 105.829 23.89 105.784 28.5612 105.155C31.5641 104.75 35.835 103.851 38.1039 103.177L42.1078 101.918L42.7751 102.862C43.6426 104.166 46.7122 104.031 50.3158 102.503C53.8526 100.974 53.3187 101.648 47.8467 105.829C41.6406 110.46 36.4356 112.753 26.9596 115.046C17.8174 117.249 16.7497 117.833 18.5514 119.496C19.6191 120.486 23.5563 121.07 29.2285 121.115C31.6976 121.115 33.6996 121.295 33.6996 121.475C33.6996 121.924 25.8919 127.004 21.6211 129.342C16.8164 131.95 11.6113 133.343 5.40527 133.658C0.600586 133.883 0 134.018 0 134.827C0 137.389 13.0127 139.278 21.4876 137.974C23.8232 137.614 25.8252 137.3 25.8919 137.3C26.0254 137.3 26.0921 137.704 26.1589 138.244C26.2256 138.783 25.4915 139.637 24.3571 140.312C23.2894 140.896 21.8213 142.065 21.0205 142.874C19.9528 144.088 18.418 144.718 13.3464 146.111C9.80957 147.1 1.00098 149.461 0 150H316.29C488.458 150 741.349 150 741.349 150L854 150V147.634C854 144.931 853.299 144.088 848.161 140.447C845.425 138.468 843.156 136.625 843.156 136.311C843.156 135.951 842.222 134.827 841.087 133.748L838.952 131.815L839.753 126.69C840.687 120.755 840.353 119.991 836.083 118.507L833.747 117.698L837.751 115.54C842.355 113.113 843.423 112.034 842.889 110.505C842.556 109.741 842.822 109.336 843.89 108.976C845.825 108.257 845.091 107.942 842.822 108.527C840.487 109.111 829.142 110.46 828.742 110.19C828.542 110.055 829.476 109.516 830.877 108.976C832.212 108.392 834.548 107.223 836.149 106.324C837.684 105.425 839.819 104.256 840.887 103.672L842.822 102.682L840.487 102.907L838.151 103.177L840.62 102.233C843.356 101.244 844.891 100.075 842.756 100.614C840.487 101.199 834.214 102.233 832.813 102.233C832.079 102.233 829.276 101.873 826.673 101.469C822.603 100.794 821.735 100.48 821.068 99.4455C820.134 97.917 821.201 96.4783 823.67 96.1636C831.878 94.9947 837.15 93.7359 839.82 92.3872C841.421 91.533 841.421 91.533 837.818 92.1624C835.882 92.5221 834.147 92.7019 834.014 92.657C833.88 92.5671 835.015 91.6679 836.483 90.6339C839.553 88.431 840.687 85.7785 838.885 84.8794C837.751 84.3399 836.616 84.3848 832.346 85.239C830.41 85.6436 829.343 85.5537 827.207 84.9693C825.672 84.5647 823.27 84.25 821.869 84.25C819.466 84.25 815.796 82.9012 815.796 82.0021C815.796 81.8223 816.931 81.5076 818.265 81.3277C819.6 81.1929 822.002 80.6084 823.604 80.1139C828.208 78.6303 828.075 77.911 823.27 78.8101C820.801 79.3047 820.534 78.9 822.536 77.6862C824.538 76.4723 827.941 73.0556 827.674 72.5161C827.541 72.2913 826.206 72.7858 824.605 73.685C822.202 75.0787 821.735 75.2135 821.402 74.5841C821.068 74.0447 820.467 73.9098 819.066 74.0896C817.665 74.2694 816.664 74.0447 815.129 73.1905L813.127 72.0216L814.528 70.7178C817.131 68.2002 815.93 64.9183 812.393 64.9183C811.058 64.9183 807.988 62.5805 807.054 60.9621C806.721 60.3327 806.12 57.2756 805.786 54.1735C805.119 47.8346 804.318 44.238 803.718 44.9123C803.451 45.1371 803.05 46.7556 802.85 48.5089C802.183 52.8698 799.981 58.939 798.112 61.1869C797.111 62.4457 796.844 63.12 797.311 63.2549C797.778 63.3448 797.245 63.9293 796.177 64.6036C794.042 65.9523 794.776 66.1771 797.779 65.1431C799.78 64.4688 799.78 64.4687 799.78 65.6826C799.78 66.4019 799.514 67.1662 799.247 67.4359C798.045 68.7397 788.97 69.459 786.301 68.4699C784.632 67.8405 784.098 68.2002 785.033 69.3241C785.433 69.8187 787.168 70.5829 788.903 71.0325C792.907 72.0216 792.707 71.8417 791.773 73.0106C791.172 73.7749 791.239 74.1795 792.04 75.0337C793.041 76.0228 792.974 76.1127 790.705 77.2816C787.702 78.8101 786.834 80.2937 787.769 82.2718C788.169 83.0811 788.836 83.8453 789.304 83.9802C791.572 84.6096 782.897 87.4419 778.426 87.5768C776.224 87.6218 775.423 87.8016 775.423 88.2961C775.423 89.0154 779.027 90.0045 781.696 90.0494C782.764 90.0944 783.097 90.2742 782.831 90.7688C782.43 91.578 785.433 91.7129 788.97 91.0385C791.372 90.544 791.639 90.7688 789.971 91.9826C788.303 93.2414 789.437 93.4662 792.44 92.4322L795.243 91.533L794.842 92.7019C793.841 95.5342 790.305 99.5354 787.035 101.514C783.631 103.537 783.631 103.582 785.567 103.582C786.701 103.582 787.769 103.941 788.303 104.481C788.77 105.02 789.837 105.38 790.838 105.38C792.24 105.38 792.507 105.515 792.106 106.144C791.839 106.594 791.372 107.583 791.039 108.347C790.104 110.46 787.101 111.269 782.63 110.685C780.695 110.415 779.094 110.055 779.094 109.876C779.094 109.696 779.694 109.201 780.428 108.752C781.162 108.302 781.763 107.673 781.763 107.313C781.763 106.279 779.16 104.93 777.158 104.93C776.024 104.93 774.956 104.706 774.756 104.481C774.556 104.211 774.623 104.031 775.023 104.031C775.423 104.031 777.292 103.627 779.294 103.132C782.163 102.413 783.164 101.873 784.365 100.435C786.568 97.7821 787.168 96.1636 786.167 95.2645C785.366 94.5452 785.166 94.5452 783.231 95.2195C781.629 95.759 780.762 95.8489 779.828 95.4893C779.094 95.2645 777.625 95.0397 776.491 95.0397C775.09 95.0397 774.556 94.8599 774.823 94.4553C775.023 94.0506 773.755 93.4212 770.952 92.5671C768.617 91.8927 765.747 90.8137 764.546 90.2293C762.411 89.1503 762.344 89.0604 763.478 88.2512C764.079 87.8016 765.013 87.397 765.48 87.397C766.815 87.397 768.283 85.6436 768.817 83.4407L769.284 81.5076L765.347 81.7773C761.543 82.047 761.21 82.0021 757.072 80.2038C754.67 79.2147 751.934 78.1807 750.933 77.911C746.729 76.787 748.797 73.0556 753.268 73.7299C756.538 74.1795 763.078 74.0896 763.879 73.5501C764.479 73.1455 764.346 73.0106 763.211 73.0106C761.276 73.0106 756.338 71.6619 756.738 71.2123C756.939 71.0325 758.407 70.7178 760.142 70.538C762.277 70.3582 763.945 69.7737 765.814 68.6498C769.551 66.357 769.084 64.244 765.013 65.278C763.745 65.6376 762.611 65.4578 759.808 64.5137L756.271 63.2999L759.141 62.5356C760.742 62.131 763.612 60.8722 765.547 59.7482C768.35 58.1298 769.084 57.3205 769.684 55.5672C770.085 54.3983 770.619 52.9597 770.819 52.3303C771.286 51.2963 771.019 51.3862 768.283 53.0946C763.679 55.9269 760.342 56.871 754.269 57.1407C745.794 57.5453 740.389 55.5672 740.389 52.0605C740.389 50.532 740.389 50.532 743.592 50.532L746.729 50.487L745.261 49.6778C743.993 48.9585 743.859 48.6887 744.593 47.6997C745.194 46.8455 745.995 46.5308 748.063 46.3959C751.266 46.1262 756.605 44.5527 755.003 44.3279C754.269 44.238 754.002 43.8783 754.203 43.3838C754.403 42.7993 753.802 42.2149 752.267 41.4956C749.665 40.2368 747.796 38.8431 747.73 38.0788C747.73 37.8091 746.996 37.1797 746.061 36.6851C744.193 35.6961 743.859 34.3474 745.461 34.3474C747.329 34.3474 746.195 31.2004 743.125 27.7386C741.457 25.8055 740.389 24.0521 740.389 23.198C740.389 22.3887 739.922 20.9951 739.388 20.0959C738.854 19.2417 738.387 17.848 738.387 17.0838C738.387 16.3195 738.12 15.4203 737.787 15.1056C737.186 14.4313 736.385 17.938 736.385 21.7144C736.385 23.5127 735.718 25.0862 733.716 28.1433C731.18 31.9646 731.113 32.1445 732.648 31.4701C734.25 30.7957 734.25 30.7957 733.716 32.0995C733.316 33.0436 733.382 33.4482 733.916 33.4482C734.317 33.4482 733.115 34.5272 731.247 35.786C727.91 38.0788 727.777 38.3036 727.577 40.8662C727.376 43.5636 727.376 43.5636 725.041 43.8334C722.972 44.1031 722.839 44.1481 724.24 44.4628C725.041 44.6426 725.708 44.9573 725.708 45.1821C725.708 45.7665 717.5 45.6766 715.231 45.0922L713.363 44.6426L715.298 45.9913C716.432 46.7556 718.301 47.6098 719.502 47.9245C722.905 48.7787 722.105 49.3181 717.7 49.0934C715.498 49.0034 713.696 48.9585 713.696 49.0034C713.696 49.498 719.902 51.4311 722.238 51.7009C723.773 51.8357 725.041 52.1055 725.041 52.2853C725.041 52.4202 723.039 53.9038 720.57 55.6122C717.1 57.9949 716.432 58.6243 717.7 58.3995C718.635 58.2197 719.769 57.86 720.236 57.6352C720.837 57.2756 721.037 57.4105 721.037 58.1298C721.037 58.6243 721.304 59.0739 721.571 59.0739C722.372 59.0739 727.91 55.0727 730.379 52.645C733.916 49.2732 733.783 49.7677 729.245 56.3764C726.576 60.1978 725.641 61.052 719.969 64.7385L713.696 68.8746L716.166 69.1443C717.567 69.3241 719.836 69.5489 721.237 69.6838C722.572 69.8636 723.706 69.9985 723.706 70.0884C723.706 70.1783 722.839 71.527 721.771 73.1006C720.57 74.8539 718.968 76.3824 717.5 77.1467C714.43 78.7202 714.097 78.7202 715.365 77.0568C716.299 75.798 716.699 74.3594 716.099 74.3594C715.899 74.3594 714.43 74.9438 712.896 75.6631C709.159 77.3715 707.157 77.6862 702.819 77.3265C697.748 76.877 696.947 76.4274 699.216 75.2585C701.685 73.9547 701.485 73.2354 698.415 71.8417C695.946 70.7628 694.144 68.7397 692.676 65.3679C692.276 64.4688 692.743 64.6935 694.945 66.357C698.615 69.1443 704.02 71.2123 707.424 71.1674L710.026 71.1224L707.691 70.4031C705.755 69.8187 705.622 69.6838 706.69 69.5489C712.695 68.7846 713.163 67.346 708.091 65.4129C704.955 64.199 694.344 57.0508 694.344 56.1517C694.344 55.9718 695.412 56.2416 696.747 56.7811C699.282 57.8151 706.556 58.1298 707.357 57.2756C707.557 57.0058 707.49 56.826 707.09 56.826C705.689 56.826 699.282 53.679 697.347 52.0605C694.678 49.7677 691.675 46.8005 691.675 46.351C691.675 46.1711 692.142 46.0363 692.743 46.0363C694.678 46.0363 698.148 44.2829 699.015 42.9342C700.217 40.9561 699.349 39.7422 696.747 39.7422C694.611 39.7422 689.006 37.6742 689.006 36.865C689.006 36.5952 688.205 35.6511 687.271 34.752C685.202 32.6839 685.335 32.1445 688.272 31.4701C693.01 30.4361 692.809 27.6487 688.005 26.2101C685.803 25.5807 684.868 24.9963 684.535 24.0971C684.334 23.4227 683.6 22.074 682.933 21.085C682.132 19.961 681.665 18.1178 681.598 16.1397C681.465 11.554 680.731 7.59778 680.064 7.59778C679.663 7.59778 679.129 8.31709 678.862 9.17128C678.529 10.0255 677.795 11.3742 677.261 12.1834C676.727 12.9477 676.327 14.9258 676.327 16.5892C676.327 20.0959 675.392 23.153 673.591 25.4009C672.923 26.3 672.323 27.5588 672.323 28.2332C672.323 29.0874 671.655 29.6718 669.653 30.526C666.584 31.8298 666.25 32.9987 668.586 34.5272C670.054 35.5612 670.121 35.6511 668.919 36.3255C668.185 36.7301 667.652 37.3595 667.652 37.7192C667.652 38.1687 665.783 39.0229 662.647 39.967C655.039 42.3048 653.104 44.0581 656.974 45.1371L659.043 45.7216L657.575 46.7556C655.84 48.0144 656.641 48.1043 660.111 47.1602C662.914 46.351 666.984 46.2611 666.984 47.0253C666.984 47.2951 664.515 49.0934 661.512 51.0265C656.908 53.9937 655.573 54.5781 653.171 54.8479C651.169 55.0277 649.167 55.747 646.297 57.3205C644.028 58.5344 641.493 59.5235 640.625 59.5235C639.824 59.5235 638.423 59.9281 637.555 60.4226L635.954 61.2768L638.423 61.007C639.758 60.8722 641.426 60.8722 642.027 61.052C643.028 61.3217 643.027 61.4566 641.693 62.3558C640.158 63.4797 639.758 64.4238 641.159 63.7045C642.627 62.8952 652.837 60.6474 653.438 61.007C654.372 61.6814 650.168 66.312 647.098 67.9754C641.359 71.1674 639.557 72.2464 639.891 72.4262C640.025 72.5161 641.292 72.2014 642.694 71.7069C644.095 71.1674 645.897 70.7628 646.698 70.7628C647.499 70.7628 650.234 70.0435 652.837 69.1893C656.441 67.9754 658.843 66.6717 663.381 63.4797L669.186 59.3436L668.719 61.0969C668.052 63.5246 666.05 66.4469 663.781 68.425C662.713 69.3241 661.312 70.7178 660.711 71.527C660.111 72.3363 657.442 74.1795 654.839 75.7081C648.7 79.1698 648.099 79.7992 651.502 79.3047C654.706 78.8101 662.313 78.4954 662.313 78.8101C662.313 79.3047 645.897 86.0033 642.961 86.7226C641.292 87.1272 637.022 87.6667 633.418 87.8465C629.881 88.0713 626.411 88.4759 625.744 88.7007C624.743 89.1053 624.81 89.1503 626.278 89.1953C627.212 89.1953 628.547 89.465 629.281 89.7797C630.015 90.1394 632.417 90.6339 634.619 90.9486C638.223 91.4431 639.424 91.3982 647.165 90.3192C651.903 89.6448 655.907 89.2402 656.107 89.3301C656.441 89.5999 649.033 92.4771 646.097 93.1965C645.029 93.4662 641.693 93.691 638.556 93.691C630.882 93.691 630.949 94.3204 638.89 95.9838C642.36 96.7031 642.961 97.3775 640.825 98.1418C638.49 98.951 647.165 98.4115 650.902 97.5124C652.503 97.1527 653.971 96.9279 654.172 97.0628C654.372 97.1977 653.905 97.872 653.171 98.5464C652.17 99.4455 651.235 99.7602 649.5 99.7602C648.233 99.8052 646.364 100.12 645.43 100.569C644.229 101.109 642.293 101.334 639.29 101.334C636.821 101.334 634.286 101.559 633.552 101.783C631.95 102.368 630.282 104.526 630.282 106.009C630.282 107.268 627.279 109.876 625.811 109.876C625.277 109.876 624.009 110.46 623.008 111.179C621.673 112.123 620.272 112.573 617.87 112.843C614.933 113.113 614.667 113.068 615.467 112.438C616.535 111.584 618.403 107.628 617.736 107.628C617.469 107.628 616.535 108.347 615.601 109.201C614.667 110.055 613.799 110.775 613.599 110.775C613.399 110.775 613.198 108.302 613.065 105.29C612.998 102.233 612.665 99.6254 612.398 99.4455C612.131 99.2657 610.996 101.469 609.995 104.391C606.792 113.202 605.791 115.136 603.656 116.17C602.521 116.709 601.253 116.934 600.586 116.799C599.585 116.529 599.452 116.709 599.785 118.238C599.919 119.182 600.319 120.441 600.586 120.98C601.387 122.643 598.984 123.138 593.179 122.464C590.109 122.104 586.706 122.014 584.103 122.239C579.232 122.599 577.697 122.599 573.56 122.194C569.489 121.834 569.155 121.43 571.491 120.081C573.827 118.777 575.095 116.889 574.561 115.675C574.227 115.001 573.493 114.821 570.69 114.821C567.554 114.821 567.354 114.776 568.355 114.102C569.022 113.607 571.291 113.247 574.627 113.023C579.766 112.708 579.832 112.708 577.831 112.123L575.762 111.539L577.297 109.966C578.164 109.111 578.898 108.122 578.898 107.718C578.898 107.358 580.3 105.829 581.968 104.346C585.438 101.199 587.707 98.5464 586.172 99.3556C579.165 103.132 573.293 105.38 570.557 105.38C569.689 105.38 570.357 104.93 572.559 104.076C574.427 103.357 576.83 102.143 577.897 101.334L579.899 99.8951L577.897 100.569C573.293 102.098 570.223 102.368 566.086 101.514C561.815 100.659 561.214 99.8951 564.151 98.906C567.02 97.917 567.22 96.9279 564.885 96.0288C562.215 94.9948 562.349 94.5901 565.418 94.5002C566.753 94.4553 568.955 94.3653 570.223 94.3204C571.491 94.2754 573.226 94.1855 574.094 94.1855C576.296 94.1406 575.895 93.5112 573.093 92.5671L570.557 91.7578L573.026 91.2633C574.427 90.9935 576.229 90.2742 577.03 89.6898C577.897 89.1053 578.164 88.7457 577.697 88.9255C576.096 89.5549 568.288 89.2852 565.885 88.4759C564.618 88.0713 563.55 87.5318 563.55 87.3071C563.55 87.0823 562.616 86.318 561.414 85.5987C559.479 84.3848 559.413 84.25 560.614 83.9802C564.751 82.9462 565.285 80.9231 561.882 78.9C560.614 78.1358 559.546 77.4614 559.546 77.3715C559.546 77.2366 560.881 77.2816 562.549 77.4164C566.019 77.6412 566.553 77.0118 563.55 76.1576C562.415 75.8429 560.614 74.8988 559.546 74.0447C557.277 72.2913 557.144 71.4821 558.211 62.4457C558.545 59.5235 558.679 57.0058 558.545 56.9159C558.412 56.826 558.011 57.9499 557.611 59.3886C557.144 60.8272 556.276 63.0301 555.542 64.244C554.808 65.5028 554.207 67.3011 554.207 68.2002C554.207 69.504 553.807 70.1783 552.472 70.8976C551.538 71.4371 549.803 72.4711 548.602 73.1455L546.533 74.4043L549.736 74.2694C551.538 74.1795 552.873 74.3144 552.873 74.5841C552.806 75.8879 550.137 79.979 549.269 80.1139C548.735 80.2038 547.868 80.7433 547.267 81.3277C546.266 82.3168 546.333 82.4067 547.534 82.6765C550.604 83.3059 547.868 86.4978 543.063 87.8915C539.994 88.7906 539.727 89.2402 541.128 91.0835C541.996 92.2074 541.996 92.2524 539.927 92.5221C538.726 92.7019 536.79 92.657 535.656 92.5221C532.72 92.1175 532.787 93.2414 535.856 95.2645C537.458 96.3435 538.726 96.838 540.127 96.838C542.062 96.838 542.062 96.883 541.462 98.2766C541.128 99.0859 540.461 100.03 539.927 100.39C539.059 100.929 538.726 100.749 537.057 98.906C536.056 97.7371 534.255 95.9838 533.12 95.0397C531.919 94.0506 530.318 92.3423 529.517 91.2183C528.049 89.1503 526.047 84.205 526.581 83.8453C526.714 83.7105 527.848 84.25 529.05 85.0142C531.385 86.5428 534.188 87.2171 535.99 86.7226C536.991 86.4529 536.924 86.318 535.189 85.7335L533.254 85.0142L537.858 83.9802C540.461 83.3958 542.663 82.9012 542.863 82.8563C543.864 82.7664 540.194 82.047 538.525 82.047C536.724 82.0021 536.924 81.8672 540.527 80.6983C544.531 79.4395 547.468 77.7761 546.667 77.1917C546.4 77.0568 544.865 77.1018 543.197 77.3715C540.728 77.7312 539.526 77.6862 536.59 77.0118C530.918 75.798 530.384 75.4833 527.848 71.9766L525.446 68.6498L526.581 67.1212L527.782 65.5927L532.92 65.7725C539.393 65.9523 542.196 65.1881 536.857 64.6935L533.32 64.3788L536.524 63.6146C538.592 63.165 540.327 62.3558 541.395 61.4117C542.329 60.5575 542.663 60.018 542.129 60.1528C538.592 60.9171 537.525 60.8722 537.525 60.0629C537.525 59.4785 536.79 59.1188 534.722 58.8041C532.253 58.4445 531.452 57.9949 529.05 55.6122C525.713 52.3752 525.78 51.566 529.45 51.7908C531.519 51.9257 532.386 51.7009 534.321 50.5769C535.656 49.8127 536.991 49.1833 537.391 49.1833C538.525 49.1833 542.262 46.8904 541.795 46.4409C541.595 46.2161 539.927 46.0363 538.125 46.0363C535.456 46.0363 534.455 45.8115 533.187 44.9123C532.253 44.3279 531.519 43.4287 531.519 42.9792C531.519 42.3947 530.918 42.0351 529.717 41.8552C528.649 41.7204 527.515 41.1809 527.048 40.7313C526.314 39.8771 526.38 39.8322 528.783 40.0569C530.317 40.1918 531.519 40.1019 531.786 39.7872C532.319 39.2028 529.116 37.0448 527.782 37.0448C526.514 37.0448 526.58 36.7751 528.516 35.5163C530.518 34.1675 530.651 32.9537 528.849 31.8747C527.915 31.3352 527.515 30.481 527.515 29.2222C527.448 28.1882 527.048 26.8845 526.514 26.2551C525.98 25.6257 525.513 24.232 525.513 23.108C525.446 20.1409 524.445 19.4215 523.911 22.0291C523.711 23.198 523.511 24.7715 523.511 25.5357C523.511 26.3 522.91 27.6038 522.176 28.413C521.442 29.2222 520.842 30.6159 520.842 31.56C520.842 32.5491 520.174 33.9427 519.173 35.0217C517.038 37.3595 517.105 37.7641 519.507 38.6183C522.977 39.8322 521.709 42.5746 516.971 44.193C513.568 45.3169 504.626 46.261 502.891 45.6316C501.756 45.227 501.289 45.4069 499.554 46.8005C496.818 49.0484 496.818 49.8127 499.688 49.5429C500.822 49.4081 502.557 49.453 503.425 49.5879L505.026 49.9026L502.891 51.566C501.69 52.4652 500.155 53.2294 499.487 53.2294C497.819 53.2294 497.285 53.9038 498.42 54.5332C499.955 55.4323 507.428 54.0387 509.364 52.5101C510.832 51.3862 511.032 51.3412 511.633 52.0156C511.966 52.4202 513.034 52.7799 513.968 52.7799C516.304 52.7799 515.636 53.1845 509.564 55.3874C504.959 57.0508 504.759 57.2306 506.561 57.3655L508.496 57.5453L505.827 58.3546C501.222 59.7482 498.687 59.7932 493.815 58.3995C491.413 57.6802 489.277 57.2306 489.077 57.4105C488.477 57.8151 493.682 61.2318 495.684 61.7264C496.751 61.9961 498.887 62.2209 500.555 62.2209C502.157 62.2209 503.491 62.4457 503.491 62.6705C503.491 63.6146 499.154 64.9183 496.084 64.9183C492.347 64.9183 491.613 65.3229 493.882 66.1322C497.018 67.2111 501.823 66.8515 508.029 65.0982C510.165 64.4688 510.164 64.5137 509.497 65.4129C509.097 65.9074 507.762 66.7166 506.628 67.1662C503.224 68.6048 506.227 68.2002 510.498 66.7166C512.567 65.9523 514.369 65.3679 514.502 65.3679C514.636 65.3679 514.435 66.2221 514.035 67.2561C512.901 70.7628 508.029 74.4043 502.357 75.9778C498.753 77.0118 490.679 77.911 484.806 77.9559L479.802 78.0009L482.004 79.2597C484.606 80.7882 484.673 81.1029 482.337 81.1479C480.669 81.1479 480.602 81.1929 481.803 81.5525C483.872 82.137 488.877 82.047 491.813 81.3277C493.215 80.9681 494.549 80.7882 494.683 80.8332C494.816 80.9231 493.482 81.7324 491.747 82.6315C488.81 84.16 488.343 84.25 483.539 84.25C478.801 84.2949 478.534 84.3399 479.802 84.9693C480.536 85.3739 482.738 86.1382 484.673 86.7226L488.21 87.8016L492.147 86.9924C494.349 86.4978 496.151 86.2281 496.151 86.318C496.151 86.4079 495.016 86.9924 493.682 87.6667L491.146 88.8356L493.815 88.5209C497.552 88.0713 500.755 86.8575 505.56 84.0252C511.699 80.4286 512.367 80.6983 507.362 84.7894C502.157 89.0604 491.88 93.3313 485.474 93.9158L482.471 94.2305L485.674 92.7918C487.409 91.9826 488.81 91.1284 488.81 90.9036C488.81 90.6788 488.477 90.6339 488.143 90.7688C487.209 91.1734 480.802 90.1394 480.802 89.5999C480.802 89.3751 481.336 89.1953 482.004 89.1503C482.804 89.1503 482.671 89.0154 481.47 88.6558C472.995 86.1382 468.524 84.3848 466.455 82.8563C465.187 81.9122 464.12 80.7882 464.12 80.4286C464.12 80.0689 463.719 78.9 463.185 77.866C462.651 76.787 462.118 75.2585 461.851 74.4493L461.45 73.0106L464.787 74.1346C468.524 75.4383 468.791 75.4383 473.529 74.764C476.932 74.2694 476.999 74.2245 475.397 73.64C473.862 73.0556 473.996 73.0556 477.132 73.0106C479.001 73.0106 481.67 72.7409 483.138 72.4712L485.807 71.9317L482.804 71.6619L479.802 71.3922L482.804 70.8077C485.874 70.1783 488.81 68.5149 488.81 67.346C488.81 66.5368 487.876 66.5368 482.938 67.391C478.467 68.2002 474.797 67.8405 469.458 66.1771L466.455 65.233L469.925 64.9183C471.86 64.6935 474.33 64.1091 475.597 63.4797C476.799 62.8953 479.535 61.6814 481.603 60.8722C483.739 60.018 485.34 59.2987 485.274 59.2537C485.207 59.2087 483.605 59.4335 481.67 59.7482C474.33 61.052 464.787 58.939 459.849 54.9828C458.047 53.5891 455.444 50.4421 455.444 49.7677C455.444 49.2282 461.917 49.4081 462.918 49.9475C463.986 50.532 475.13 50.9816 477.466 50.532L479.134 50.2622L477.132 49.8127L475.197 49.3631L479.067 48.1493C481.27 47.4749 482.871 46.8455 482.738 46.7556C482.604 46.6207 480.335 46.8455 477.8 47.2052C473.395 47.8346 472.995 47.8346 469.658 46.8905C467.723 46.351 465.921 45.7665 465.721 45.5417C465.588 45.3619 466.655 44.7325 468.123 44.238C470.993 43.2489 473.128 41.3607 473.862 39.1578C474.463 37.1797 473.462 36.7751 469.058 37.4944C466.188 37.9889 464.854 37.9889 463.252 37.5843C459.915 36.7301 454.11 34.1675 454.31 33.673C454.443 33.4482 455.578 32.8638 456.846 32.4592C460.182 31.4251 460.916 30.6609 460.65 28.413C460.449 26.5248 460.383 26.4798 457.78 26.2101C453.242 25.8055 452.375 25.266 452.642 23.108C452.842 21.5795 453.109 21.3098 454.043 21.5795C456.312 22.2089 457.847 22.2539 459.048 21.6245C460.249 21.04 460.249 20.9951 458.581 20.6804C456.245 20.3207 456.379 19.961 458.914 18.8371C461.584 17.7132 462.051 16.814 459.982 16.814C457.98 16.814 454.377 15.3304 453.442 14.1166C452.975 13.5771 452.375 11.8687 452.041 10.3402C451.707 8.85659 451.04 5.88941 450.573 3.77642L449.705 1.61828e-06L448.905 2.42769ZM319.312 82.6765C319.312 82.7664 317.977 83.3958 316.309 84.0252L313.306 85.239L310.169 84.3848L306.966 83.5756L312.305 83.0811C319.178 82.4067 319.312 82.4067 319.312 82.6765ZM373.965 88.6558C372.163 89.7347 370.695 90.8137 370.695 91.0835C370.695 91.4431 372.63 91.4881 376.834 91.2633C382.774 90.9935 382.907 90.9936 381.773 91.8477C381.105 92.3423 379.17 92.9717 377.435 93.2414C373.231 93.9158 370.028 95.2645 370.028 96.3435C370.028 97.2426 372.23 98.5014 375.5 99.4455L377.302 99.9401L376.167 101.738C375.566 102.772 374.832 103.582 374.632 103.582C373.698 103.582 366.091 99.1308 366.758 98.9959C367.158 98.906 365.824 97.7821 363.755 96.5233C361.686 95.2645 360.018 94.0956 360.018 93.9607C360.018 93.8259 360.752 93.9158 361.686 94.1406C363.755 94.68 363.822 94.1406 361.953 92.9717C361.152 92.5221 359.951 91.533 359.15 90.8137L357.749 89.51L361.953 89.7797C364.222 89.9595 366.691 90.3192 367.492 90.5889C368.827 91.0835 368.893 90.9936 368.493 89.5999C368.293 88.7457 367.959 87.7566 367.759 87.397C367.425 86.8125 368.159 86.7226 372.297 86.7226H377.302L373.965 88.6558ZM314.64 89.8696C314.64 89.9595 313.906 90.4091 313.039 90.7688C311.571 91.4431 311.237 91.4431 309.369 90.7688C308.234 90.4091 307.3 89.9595 307.3 89.8696C307.3 89.7347 308.968 89.6448 310.97 89.6448C312.972 89.6448 314.64 89.7347 314.64 89.8696ZM240.234 92.3423L242.103 93.691L239.701 94.3654C236.497 95.2645 236.097 95.2195 235.697 94.0506C235.43 93.3763 235.763 92.7019 236.698 92.0276C237.498 91.4431 238.166 90.9935 238.232 90.9935C238.299 90.9935 239.167 91.578 240.234 92.3423ZM307.967 96.3435C306.899 97.7371 306.299 97.7821 304.631 96.6132L303.096 95.4893H305.898C308.434 95.4893 308.635 95.5792 307.967 96.3435ZM440.897 97.3775C440.096 98.1867 438.361 99.5804 436.96 100.524C433.957 102.458 423.613 106.729 421.878 106.729C420.143 106.729 415.806 105.155 413.07 103.537L410.734 102.143L413.07 101.289C414.338 100.794 416.073 100.435 416.94 100.435C418.675 100.435 426.016 98.7712 427.284 98.0968C428.752 97.2426 428.218 98.8161 426.416 100.435C425.482 101.289 424.748 102.098 424.748 102.278C424.748 102.997 432.756 100.21 437.093 98.0069C439.696 96.6582 441.898 95.6691 442.031 95.759C442.165 95.804 441.631 96.5683 440.897 97.3775ZM414.471 97.2426C414.271 97.4674 412.669 98.1867 411.001 98.8611C408.065 100.03 407.931 100.03 407.064 99.2207C405.996 98.3216 406.263 98.1867 411.068 97.3775C414.738 96.793 414.871 96.793 414.471 97.2426ZM473.195 101.379C475.664 102.143 477.466 102.817 477.266 102.952C477.066 103.087 475.397 103.447 473.529 103.806C469.725 104.481 470.392 104.75 466.989 101.019C465.321 99.1308 465.921 99.1758 473.195 101.379ZM105.369 101.379C104.302 102.188 104.168 102.188 102.967 101.514C101.232 100.39 101.499 100.12 104.168 100.345C106.437 100.524 106.437 100.569 105.369 101.379ZM93.2243 104.076C95.293 104.795 95.7601 105.11 95.0261 105.425C93.4245 106.099 91.8897 105.874 90.822 104.84C88.82 102.907 89.3539 102.727 93.2243 104.076ZM426.082 110.775C425.148 111.269 423.947 111.674 423.413 111.674C422.879 111.674 423.346 111.269 424.414 110.82C427.017 109.651 428.218 109.651 426.082 110.775ZM418.742 114.281C418.742 114.506 417.407 115.27 415.739 116.08C412.936 117.428 412.736 117.428 412.069 116.619C411.068 115.405 411.201 115.001 412.936 114.461C414.671 113.877 418.742 113.742 418.742 114.281ZM114.111 114.821H118.783L117.114 115.765C112.643 118.193 112.777 118.193 109.44 116.619C106.237 115.136 105.436 114.102 107.972 114.551C108.773 114.686 111.576 114.821 114.111 114.821ZM431.421 124.037C430.954 124.397 429.953 124.712 429.152 124.712C427.751 124.667 427.751 124.667 429.019 124.037C430.82 123.093 432.555 123.138 431.421 124.037Z" fill="black"/>
</svg>
