<svg width="2229" height="450" viewBox="0 0 2229 450" fill="none" xmlns="http://www.w3.org/2000/svg">
    <path d="M538.403 0.771667C533.215 1.78866 526.23 5.85664 514.456 14.5646C505.975 20.8573 498.791 22.8913 469.756 27.4042C444.711 31.2815 432.439 35.2859 416.674 44.8838C405.698 51.6213 399.811 56.7063 384.745 72.851C371.773 86.5804 360.598 96.6868 334.656 118.298C324.977 126.307 311.108 137.939 303.824 144.041C287.96 157.389 279.279 163.363 250.144 180.716C217.915 200.039 206.141 208.81 190.277 225.591C175.31 241.354 160.842 261.122 136.696 298.814C117.838 328.37 104.966 346.422 94.4895 357.927C87.2057 365.999 76.8288 375.47 53.78 395.174C41.3077 405.853 27.1392 418.438 22.3498 423.078C14.0682 431.15 0 450 0 450H2229L2224.86 446.532C2222.56 444.816 2216.97 440.367 2212.58 436.744C2190.63 418.692 2150.52 391.17 2130.76 380.618C2111.01 370.067 2097.64 366.317 2090.35 369.368C2089.46 369.686 2086.66 371.847 2084.17 374.135C2081.57 376.423 2078.58 378.966 2077.48 379.856L2075.59 381.381L2068.7 377.567C2046.75 365.3 2023.5 355.003 2005.34 349.664C1991.57 345.596 1982.99 344.134 1971.52 343.816C1956.45 343.308 1953.86 343.88 1925.72 353.35C1910.06 358.562 1903.97 359.77 1892.29 359.707C1881.12 359.707 1876.13 358.817 1870.64 356.02C1861.06 351.126 1856.87 349.6 1841.51 345.405C1795.41 332.82 1769.47 321.696 1704.71 286.801C1653.43 259.151 1651.13 258.198 1603.94 245.74C1546.16 230.549 1534.39 224.574 1489.49 187.835C1463.95 166.923 1457.76 162.41 1438.9 150.46C1409.57 132.027 1400.79 127.514 1386.72 123.828C1381.43 122.429 1378.84 122.175 1370.45 122.175C1358.48 122.112 1350.5 123.51 1335.53 128.214C1322.26 132.409 1314.68 136.095 1296.02 147.6C1287.34 152.939 1277.76 158.406 1274.57 159.804C1260.4 165.842 1247.63 168.766 1232.66 169.275C1220.59 169.72 1213.7 169.02 1196.64 165.652C1180.78 162.601 1176.09 161.901 1165.61 161.202C1145.06 159.804 1116.52 164.317 1079.6 174.677C1053.16 182.114 997.084 201.246 984.811 207.031C978.325 210.082 966.452 217.645 940.41 235.252C924.445 246.058 918.459 249.109 904.589 253.431C893.215 256.99 890.321 257.308 889.423 254.956C888.425 252.35 881.94 249.236 869.667 245.422C863.281 243.452 850.709 239.002 841.729 235.57C822.572 228.197 763.503 203.662 754.822 199.403C744.645 194.445 732.472 186.182 715.609 172.771C698.348 159.105 686.973 151.287 679.29 147.981C676.696 146.837 669.312 144.041 662.926 141.752C647.86 136.413 640.476 132.726 634.889 127.896C625.809 120.014 622.416 114.484 616.13 96.6868C609.545 77.936 600.166 53.5918 596.274 45.0745C589.589 30.4552 580.609 16.98 573.126 10.4967C563.248 1.85223 550.476 -1.70725 538.403 0.771667ZM555.764 18.3784C555.764 22.1285 559.656 30.0103 566.141 39.6081C575.022 52.5112 578.813 60.0115 578.813 64.4608C578.913 69.228 577.815 70.69 572.228 74.1223C567.538 76.9826 564.745 80.0336 564.745 82.2582C564.745 83.1481 565.942 83.593 569.933 84.1651C576.419 85.1821 581.308 87.089 583.203 89.3772C585.099 91.6654 585.099 96.814 583.203 98.9115C582.405 99.8014 581.807 100.691 581.707 100.945C581.707 101.2 585.299 103.17 589.689 105.268C600.266 110.416 601.762 112.26 601.463 120.014C601.263 128.214 603.758 130.82 617.128 136.095C627.605 140.227 631.596 143.341 631.596 147.219C631.596 151.732 624.312 153.003 608.148 151.414C589.889 149.634 583.802 151.414 559.456 165.779L549.778 171.499L551.674 168.385C552.771 166.732 555.665 162.346 558.259 158.66C560.853 154.973 564.545 148.998 566.541 145.312C569.733 139.337 570.133 137.939 570.133 131.964C570.133 123.446 568.436 120.84 559.756 116.01C552.771 112.132 551.175 110.48 547.283 102.407C544.49 96.9411 544.09 96.4962 536.108 91.3476C529.423 87.0254 527.328 85.1185 524.933 81.4955C520.543 74.6308 518.647 67.9568 518.547 58.5496C518.447 48.8246 519.844 44.6295 525.931 36.6207C529.523 31.8535 531.518 30.3281 541.995 23.7176C548.58 19.6496 554.368 16.2808 554.867 16.2808C555.365 16.2808 555.764 17.2342 555.764 18.3784ZM528.525 29.1839C525.731 33.0612 522.838 34.5867 514.357 36.5571C504.977 38.7818 500.388 40.7522 495.698 44.6931C493.303 46.6635 490.011 48.8246 488.414 49.4602C484.922 50.7315 468.957 51.812 468.957 50.795C468.957 49.6509 482.926 41.7056 490.21 38.7182C500.188 34.5231 530.221 24.5439 530.62 25.2431C530.82 25.5609 529.922 27.3406 528.525 29.1839ZM456.086 57.2148C451.895 63.3803 447.305 78.8894 446.308 90.4577C445.609 98.5937 446.906 101.772 452.294 105.713C461.274 112.196 474.345 112.895 504.578 108.319C511.862 107.175 518.148 106.475 518.447 106.73C519.844 107.619 515.454 113.022 510.864 116.264C508.17 118.107 500.787 122.048 494.201 124.972C475.144 133.68 461.474 142.642 447.505 155.8C439.124 163.618 434.035 170.419 426.152 184.212C420.764 193.81 417.572 198.513 406.696 213.641C404.9 216.12 397.317 223.811 389.933 230.803C369.778 249.871 369.179 250.698 362.195 267.351C357.505 278.729 354.512 282.669 345.631 289.915C335.055 298.56 333.458 302.819 337.25 311.908C339.944 318.328 339.744 320.298 336.152 324.557C328.968 333.138 315.698 340.257 288.259 350.236C280.776 352.969 271.396 356.973 267.405 359.134C260.521 362.758 256.43 365.554 236.075 380.174C231.685 383.352 226.197 386.975 223.802 388.309L219.512 390.788L224.002 384.686C226.496 381.318 230.587 375.788 233.082 372.355C235.576 368.987 245.554 355.194 255.133 341.718C277.882 309.747 296.341 285.784 301.43 281.462C303.725 279.555 311.208 274.216 318.192 269.576C335.254 258.262 339.246 253.24 340.742 241.608C341.94 231.883 346.529 228.26 365.288 222.222C379.955 217.518 387.838 214.277 400.31 207.666L409.689 202.708L411.784 196.733C415.077 187.581 415.576 183.004 413.68 178.873C410.986 172.961 403.403 169.847 396.917 172.071C395.72 172.453 388.736 175.885 381.252 179.635C361.097 189.805 352.416 192.983 345.232 192.983C341.341 192.983 336.851 190.441 335.254 187.326L333.957 184.72L340.942 180.08C347.527 175.758 362.893 162.728 362.095 162.156C361.795 162.029 357.904 163.554 353.215 165.525C341.042 170.673 325.277 181.034 305.121 197.115C282.172 215.357 282.272 215.357 264.013 220.251C250.742 223.874 243.957 226.735 229.39 235.125C217.117 242.18 206.341 247.71 205.742 247.329C204.944 246.82 218.514 231.057 225.798 223.938C236.574 213.577 248.148 204.552 262.416 195.462C276.784 186.246 284.866 182.051 302.627 174.233C320.986 166.16 327.172 161.329 343.736 142.452C357.605 126.434 364.09 121.794 390.133 108.446C411.485 97.5767 419.168 93.1274 426.152 87.5975C433.337 81.9405 434.833 80.1607 439.523 71.5798C441.518 67.8932 444.212 63.7616 445.509 62.2997C447.605 60.075 456.086 54.4181 457.383 54.4181C457.682 54.4181 457.084 55.6893 456.086 57.2148ZM531.917 133.871C532.915 134.252 534.512 135.396 535.31 136.413C536.807 138.32 536.807 138.32 533.115 139.273C521.94 142.261 513.957 151.668 510.365 166.033C507.372 178.046 502.982 183.64 487.516 195.208C481.031 200.039 474.345 205.886 469.257 211.162C468.359 212.116 468.359 211.734 469.057 209.509C469.556 207.92 473.248 202.518 477.239 197.496C484.323 188.47 484.423 188.28 484.323 183.513C484.323 179.254 483.824 178.11 480.631 173.915C476.141 168.194 475.842 164.889 479.334 160.249C482.328 156.244 486.618 153.702 495.399 150.651C506.973 146.71 510.765 144.803 515.953 140.163C523.436 133.616 527.028 132.218 531.917 133.871ZM1343.51 150.015C1349 151.477 1349.6 153.193 1347.11 159.423C1344.61 165.715 1344.51 167.622 1346.51 170.037C1348.9 173.088 1353.39 174.868 1362.07 176.457C1374.55 178.682 1379.13 180.334 1382.83 183.958C1386.22 187.39 1386.72 189.233 1384.42 190.695C1380.93 192.856 1372.85 192.793 1349 190.314L1335.43 188.979L1329.84 190.568C1326.75 191.521 1319.77 194.382 1314.38 196.988C1300.11 203.852 1294.52 205.441 1285.94 205.124C1284.35 205.06 1284.15 204.425 1284.45 199.721C1284.64 193.492 1283.75 192.475 1276.06 190.314C1269.28 188.47 1267.68 187.136 1267.68 183.195C1267.78 179.381 1270.38 176.076 1277.26 171.118C1287.04 164.063 1310.39 154.274 1325.45 150.905C1334.53 148.935 1338.53 148.744 1343.51 150.015ZM1157.23 179.254C1153.04 180.779 1144.96 184.148 1139.27 186.754C1133.58 189.36 1122.31 194.318 1114.02 197.75C1102.25 202.645 1096.76 205.441 1088.28 210.844L1077.6 217.709L1080.2 220.76C1083.49 224.701 1083.09 228.324 1078.9 231.629C1077.31 232.9 1070.82 236.015 1064.53 238.557C1051.36 243.833 1048.57 245.803 1042.68 254.639C1037.59 262.075 1032.9 266.27 1027.82 267.923C1025.62 268.686 1019.93 269.512 1014.64 269.893C1004.17 270.72 999.379 271.927 996.385 274.533C994.689 275.995 994.19 277.584 993.791 283.241C993.292 289.598 993.093 290.36 990.299 292.839C988.603 294.365 983.614 297.162 978.824 299.259C959.767 307.586 958.37 308.348 953.481 313.179C946.097 320.362 943.603 321.76 929.634 326.209L916.862 330.341L921.053 326.654C923.447 324.62 928.037 320.679 931.43 317.883C934.822 315.086 942.206 308.476 947.793 303.263C953.381 297.988 961.962 290.043 966.751 285.593C976.33 276.758 982.915 268.813 984.911 263.982C986.607 259.533 985.51 254.511 981.219 248.028C978.126 243.197 977.627 241.863 978.126 239.066C978.824 234.426 982.716 229.976 989.6 225.972C996.186 222.031 1003.47 219.489 1022.23 214.404C1040.89 209.319 1044.08 208.048 1055.15 201.056C1068.92 192.411 1072.82 191.204 1094.27 189.424C1110.33 188.089 1115.62 187.136 1131.39 182.75C1145.06 178.873 1156.43 176.584 1161.92 176.521C1164.41 176.457 1163.71 176.839 1157.23 179.254ZM635.587 192.221C643.07 194.572 643.968 198.958 638.58 208.238C635.088 214.213 634.589 216.501 636.585 217.2C637.383 217.518 641.175 218.662 644.866 219.807C653.248 222.285 657.039 224.955 659.035 229.722C664.124 241.418 667.416 246.82 675.997 257.499C686.075 269.893 700.742 291.949 705.432 301.674C708.924 308.92 711.419 317.247 711.419 321.315L711.319 324.239L708.924 320.616C706.031 316.421 696.552 305.742 692.161 301.802C690.365 300.276 685.476 297.543 680.687 295.509C671.108 291.377 668.314 289.089 665.521 283.241C663.026 277.839 658.536 274.533 649.756 271.61C640.376 268.431 636.186 265.381 633.492 259.596C631.696 255.91 630.299 254.321 626.407 251.651C619.722 247.202 609.844 242.943 593.181 237.413C578.215 232.455 573.725 230.231 573.725 227.752C573.725 225.336 576.818 223.366 588.991 217.9C603.658 211.289 609.046 207.412 613.935 200.039C618.525 193.11 621.818 191.076 627.904 191.076C630.199 191.076 633.691 191.585 635.587 192.221ZM719.9 201.564C722.694 203.28 728.082 205.823 731.973 207.158C741.651 210.526 748.137 213.768 751.829 217.073L754.822 219.807V234.172C754.922 252.541 755.321 253.431 772.583 269.893C787.549 284.131 791.64 290.678 798.226 311.463C799.822 316.675 803.015 325.256 805.11 330.532C810.498 343.625 812.294 350.299 811.995 355.829L811.696 360.469L806.707 357.228C801.818 354.05 800.221 352.333 792.937 342.354C790.942 339.748 785.454 333.71 780.665 329.006C768.891 317.501 767.694 315.467 765.798 303.836C763.503 289.47 760.21 282.924 754.124 280.953C750.432 279.746 737.86 278.22 731.274 278.156C728.481 278.156 726.186 277.775 725.487 277.267C724.789 276.758 723.791 272.69 723.292 268.241C722.694 262.965 721.696 259.279 720.498 257.562C718.403 254.448 712.516 250.952 702.439 246.566C691.762 241.99 690.964 241.29 690.964 236.587C691.064 231.82 692.062 230.739 703.037 223.493C712.716 217.073 715.11 213.45 714.013 206.713C712.317 196.225 712.317 195.78 713.614 197.115C714.312 197.814 717.206 199.784 719.9 201.564ZM1201.33 197.369C1201.33 197.75 1200.93 198.132 1200.43 198.323C1198.94 198.958 1196.44 204.234 1194.74 210.336C1192.25 219.616 1188.76 222.857 1173.69 229.976C1160.62 236.142 1157.53 239.193 1154.43 249.172C1152.84 254.066 1150.94 256.863 1144.06 264.046C1137.37 271.101 1136.37 272.627 1133.98 278.792C1130.49 288.009 1124.5 293.793 1102.35 309.175C1094.77 314.387 1085.59 320.997 1081.9 323.985C1078.2 326.972 1072.02 331.739 1068.13 334.6C1064.33 337.46 1059.45 341.591 1057.35 343.752C1053.86 347.312 1053.56 347.503 1054.16 345.532C1055.35 341.846 1061.44 331.167 1066.23 324.302C1074.51 312.671 1089.68 294.746 1095.76 289.47C1105.04 281.462 1106.84 278.856 1106.74 273.135C1106.54 263.156 1111.73 254.893 1126.2 241.926C1131.09 237.54 1138.57 230.548 1142.96 226.353C1156.13 213.514 1172.99 204.043 1191.25 198.958C1199.13 196.733 1201.33 196.416 1201.33 197.369ZM1454.17 208.175C1456.96 209.319 1458.86 210.971 1462.35 215.357C1467.74 222.158 1471.73 224.129 1483.6 225.718C1511.44 229.404 1521.72 231.883 1529.7 236.841C1533.49 239.193 1534.59 240.337 1535.49 243.197C1537.58 249.426 1542.27 252.605 1556.34 257.117C1564.72 259.787 1569.81 262.902 1572.51 266.906C1574.6 270.021 1574.7 270.783 1574.1 279.11C1573.5 287.373 1573.6 288.453 1576.1 294.365C1578.99 301.547 1578.99 306.823 1576.1 310.7C1575.2 311.971 1570.61 315.658 1566.02 318.836C1561.33 322.078 1555.74 326.781 1553.45 329.26C1543.97 339.43 1540.48 341.591 1534.49 340.765C1530.3 340.193 1520.92 334.472 1517.93 330.659C1515.43 327.608 1515.33 326.972 1515.43 318.645C1515.53 313.37 1515.13 308.793 1514.43 307.331C1512.84 303.899 1507.25 300.848 1499.57 299.195C1486.1 296.335 1481.71 293.475 1481.71 287.754V284.958L1477.72 285.403C1472.83 285.911 1469.04 285.339 1468.34 284.068C1467.94 283.496 1468.64 280.89 1469.83 278.284C1472.53 272.182 1471.73 270.211 1464.25 264.999C1457.86 260.486 1456.46 258.516 1457.36 255.401L1458.06 253.177L1452.97 253.622C1450.08 253.876 1443.49 254.893 1438.3 255.91L1428.82 257.753L1422.74 255.274C1419.35 253.876 1415.75 252.605 1414.76 252.414C1413.76 252.16 1412.86 251.778 1412.86 251.46C1412.86 250.634 1421.34 243.706 1424.83 241.608C1428.92 239.193 1432.82 234.044 1432.82 230.93C1432.82 229.595 1431.62 226.798 1430.22 224.637C1428.13 221.396 1427.73 219.934 1428.03 216.501C1428.43 211.734 1430.72 209.065 1436.01 207.348C1440.6 205.886 1449.28 206.268 1454.17 208.175ZM1273.57 209.764C1280.25 211.543 1281.85 215.611 1278.16 221.586C1275.27 226.29 1275.57 228.896 1279.26 231.248C1282.25 233.218 1282.25 233.218 1290.83 232.837C1301.41 232.328 1304.5 233.155 1306.2 236.841C1307.19 238.939 1307.1 239.829 1305.8 242.053C1303 246.63 1297.42 250.507 1278.46 260.868C1269.28 265.825 1266.88 267.542 1262.29 272.055C1259.2 275.169 1259.2 275.36 1259.2 283.305C1259.2 290.297 1258.8 292.204 1256.61 296.589C1252.92 304.153 1237.85 326.718 1233.26 331.612C1229.17 335.998 1219.59 342.99 1220.79 340.765C1221.19 340.066 1223.88 334.917 1226.87 329.324C1235.15 313.942 1239.25 304.471 1239.25 300.848C1239.25 299.005 1238.55 295.318 1237.75 292.585C1234.46 281.652 1236.25 277.966 1249.02 269.067C1261.8 260.232 1262.69 256.545 1254.91 245.104C1251.92 240.655 1250.72 237.985 1250.42 234.934C1250.12 231.184 1250.32 230.612 1253.02 228.197C1255.91 225.654 1255.91 225.654 1254.11 224.192C1248.62 219.934 1256.11 211.035 1266.49 209.509C1268.18 209.255 1269.78 209.001 1269.98 208.937C1270.08 208.874 1271.77 209.255 1273.57 209.764ZM1648.74 281.589C1652.13 285.275 1657.02 287.754 1671.78 293.411C1685.25 298.496 1690.64 301.42 1693.34 305.17C1697.43 310.764 1694.93 314.959 1684.06 320.362C1674.38 325.192 1671.78 327.608 1671.78 331.993C1671.78 335.172 1671.98 335.489 1676.67 338.35L1681.46 341.337L1681.06 345.024C1680.47 349.982 1677.17 352.842 1665.8 358.372C1650.23 365.872 1647.14 368.923 1642.45 381.063C1638.96 390.153 1635.66 394.157 1627.68 398.988C1619.7 403.819 1611.12 406.933 1588.07 413.226C1577.19 416.213 1567.62 418.946 1566.92 419.328C1566.12 419.709 1565.52 419.9 1565.52 419.709C1565.52 419.518 1571.71 416.086 1579.29 412.145C1611.72 395.174 1626.88 382.907 1632.37 369.368C1633.57 366.253 1634.97 359.389 1635.86 351.443C1636.66 344.388 1637.86 337.206 1638.36 335.553C1638.96 333.9 1643.05 327.989 1647.44 322.332C1659.21 307.268 1659.11 305.488 1645.84 294.301C1637.56 287.437 1635.47 284.513 1635.37 280.381C1635.37 276.758 1636.96 274.851 1641.75 273.008L1644.84 271.8L1645.44 275.233C1645.84 277.203 1647.14 279.936 1648.74 281.589ZM1043.58 293.92C1044.68 295.255 1044.68 295.128 1041.59 303.454C1039.59 308.984 1039.49 310.764 1041.09 313.179C1041.59 313.942 1038.99 315.594 1031.01 319.662C1015.44 327.544 1013.65 329.324 1010.25 339.43C1008.16 345.659 1002.77 352.397 990.299 364.283C978.625 375.534 966.153 385.004 957.971 388.945C954.478 390.598 951.385 391.869 951.186 391.678C950.886 391.551 954.179 387.61 958.37 382.97C976.23 363.52 986.807 345.723 986.807 335.235C986.807 330.913 988.303 328.625 994.49 323.476C999.778 319.09 1000.18 318.455 1000.58 314.832C1000.78 312.544 1000.28 309.048 999.379 306.569C997.184 300.721 997.283 294.746 999.379 294.238C1001.77 293.666 1007.46 295.827 1013.75 299.64C1020.33 303.708 1021.53 303.581 1027.32 298.242C1029.51 296.272 1032.6 294.301 1034.2 293.729C1038.39 292.458 1042.38 292.521 1043.58 293.92ZM1909.06 365.491C1910.85 365.936 1913.55 367.27 1915.04 368.351C1919.04 371.402 1918.64 374.135 1913.65 379.538C1908.16 385.386 1907.36 389.199 1911.05 391.551C1914.25 393.585 1917.84 393.649 1926.62 391.933C1936.6 389.899 1939.99 390.598 1955.65 397.653C1960.84 399.941 1968.03 402.674 1971.52 403.628C1979.1 405.662 1994.57 408.268 2002.25 408.84C2005.14 409.094 2007.84 409.539 2008.14 409.857C2008.84 410.556 2001.55 412.59 1993.97 413.861C1990.78 414.37 1980.9 415.323 1972.12 416.023C1956.25 417.357 1953.86 417.675 1931.51 422.061C1925.12 423.269 1916.84 424.476 1913.15 424.731L1906.46 425.175L1907.06 423.65C1907.36 422.824 1907.96 420.281 1908.26 417.993C1908.96 413.099 1907.16 410.238 1901.87 408.014C1899.08 406.806 1897.18 406.552 1890.6 406.552C1877.73 406.552 1873.74 404.836 1871.84 398.416C1869.55 390.661 1876.53 377.949 1887.11 370.576C1894.89 365.173 1901.77 363.52 1909.06 365.491Z" fill="black"/>
</svg>


